<?xml version="1.0" standalone="no"?>
<!DOCTYPE svg PUBLIC "-//W3C//DTD SVG 1.1//EN" 
"http://www.w3.org/Graphics/SVG/1.1/DTD/svg11.dtd">

<svg width="19px" height="12px"
	viewBox="0 -0.9 21 0.9" preserveAspectRation="none" 
	version="1.1" xmlns="http://www.w3.org/2000/svg">
	<g transform="scale(3, -3)">
	<path style="fill:none; stroke: #00ffff; stroke-width:0.5;"
	d="M 0,0
		C 0.201843,0.201843 0.403515,0.403513 0.609067,0.572102
		C 0.775441,0.708560 0.942986,0.822220 1.115166,0.897984
		C 1.266222,0.964453 1.416861,1.000000 1.570796,1.000000
		C 1.724745,1.000000 1.875396,0.964447 2.026464,0.897968
		C 2.198618,0.822209 2.366139,0.708567 2.532489,0.572133
		C 2.738053,0.403537 2.939738,0.201855 3.141593,0.000000
		C 3.343447,-0.201855 3.545131,-0.403536 3.750695,-0.572132
		C 3.917046,-0.708566 4.084568,-0.822209 4.256722,-0.897968
		C 4.407790,-0.964447 4.558441,-1.000000 4.712389,-1.000000
		C 4.866337,-1.000000 5.016988,-0.964447 5.168055,-0.897968
		C 5.340209,-0.822210 5.507730,-0.708567 5.674080,-0.572134
		C 5.879645,-0.403537 6.081330,-0.201855 6.283185,0.000000"	
	 />
	</g>
</svg>
